<svg width="577" height="739" xmlns="http://www.w3.org/2000/svg" xmlns:xlink="http://www.w3.org/1999/xlink" overflow="hidden"><defs><clipPath id="clip0"><rect x="276" y="-1" width="577" height="739"/></clipPath><clipPath id="clip1"><rect x="276" y="0" width="576" height="384"/></clipPath><clipPath id="clip2"><rect x="276" y="0" width="576" height="384"/></clipPath><clipPath id="clip3"><rect x="276" y="0" width="576" height="384"/></clipPath><clipPath id="clip4"><rect x="276" y="0" width="576" height="384"/></clipPath><clipPath id="clip5"><rect x="337" y="29" width="117" height="314"/></clipPath><clipPath id="clip6"><rect x="461" y="29" width="118" height="314"/></clipPath><clipPath id="clip7"><rect x="585" y="29" width="118" height="314"/></clipPath><clipPath id="clip8"><rect x="337" y="7" width="117" height="23"/></clipPath><clipPath id="clip9"><rect x="461" y="7" width="118" height="23"/></clipPath><clipPath id="clip10"><rect x="585" y="7" width="118" height="23"/></clipPath><clipPath id="clip11"><rect x="276" y="0" width="576" height="384"/></clipPath><clipPath id="clip12"><rect x="276" y="363" width="561" height="374"/></clipPath><clipPath id="clip13"><rect x="276" y="363" width="561" height="374"/></clipPath><clipPath id="clip14"><rect x="276" y="363" width="561" height="374"/></clipPath><clipPath id="clip15"><rect x="276" y="363" width="561" height="374"/></clipPath><clipPath id="clip16"><rect x="335" y="392" width="120" height="305"/></clipPath><clipPath id="clip17"><rect x="461" y="392" width="119" height="305"/></clipPath><clipPath id="clip18"><rect x="586" y="392" width="120" height="305"/></clipPath><clipPath id="clip19"><rect x="335" y="370" width="120" height="23"/></clipPath><clipPath id="clip20"><rect x="461" y="370" width="119" height="23"/></clipPath><clipPath id="clip21"><rect x="586" y="370" width="120" height="23"/></clipPath><clipPath id="clip22"><rect x="276" y="363" width="561" height="374"/></clipPath></defs><g clip-path="url(#clip0)" transform="translate(-276 1)"><g clip-path="url(#clip1)"><g clip-path="url(#clip2)"><g clip-path="url(#clip3)"><path d="M276 0 852 0 852 384 276 384Z" fill="#FFFFFF"/><g clip-path="url(#clip4)"><path d="M276 0 852 0 852 384 276 384Z" stroke="#FFFFFF" stroke-width="1.42667" stroke-linecap="round" stroke-linejoin="round" stroke-miterlimit="10" fill="#FFFFFF"/></g><g clip-path="url(#clip5)"><path d="M337.147 29.8667 453.987 29.8667 453.987 342.013 337.147 342.013Z" fill="#FFFFFF"/><path d="M396.96 252.267 422 252.267 422 338.947 396.96 338.947Z" fill="#1F77B4" fill-opacity="0.9"/><path d="M369.147 247.64 394.187 247.64 394.187 338.947 369.147 338.947Z" fill="#1F77B4" fill-opacity="0.9"/><path d="M341.32 238.8 366.36 238.8 366.36 338.947 341.32 338.947Z" fill="#1F77B4" fill-opacity="0.9"/><path d="M424.787 236.547 449.827 236.547 449.827 338.947 424.787 338.947Z" fill="#1F77B4" fill-opacity="0.9"/><path d="M396.96 65.3733 422 65.3733 422 252.267 396.96 252.267Z" fill="#FF7F0E" fill-opacity="0.9"/><path d="M369.147 69.56 394.187 69.56 394.187 247.653 369.147 247.653Z" fill="#FF7F0E" fill-opacity="0.9"/><path d="M341.32 78.7867 366.36 78.7867 366.36 238.8 341.32 238.8Z" fill="#FF7F0E" fill-opacity="0.9"/><path d="M424.787 89.0533 449.827 89.0533 449.827 236.547 424.787 236.547Z" fill="#FF7F0E" fill-opacity="0.9"/><path d="M396.96 43.5467 422 43.5467 422 65.3733 396.96 65.3733Z" fill="#2CA02C" fill-opacity="0.9"/><path d="M369.147 45.4 394.187 45.4 394.187 69.56 369.147 69.56Z" fill="#2CA02C" fill-opacity="0.9"/><path d="M341.32 55.8267 366.36 55.8267 366.36 78.8 341.32 78.8Z" fill="#2CA02C" fill-opacity="0.9"/><path d="M424.787 58.84 449.827 58.84 449.827 89.0533 424.787 89.0533Z" fill="#2CA02C" fill-opacity="0.9"/><path d="M396.96 37.1467 422 37.1467 422 43.5467 396.96 43.5467Z" fill="#D62728" fill-opacity="0.9"/><path d="M369.147 38.2 394.187 38.2 394.187 45.4 369.147 45.4Z" fill="#D62728" fill-opacity="0.9"/><path d="M341.32 37.5467 366.36 37.5467 366.36 55.8133 341.32 55.8133Z" fill="#D62728" fill-opacity="0.9"/><path d="M424.787 38.84 449.827 38.84 449.827 58.84 424.787 58.84Z" fill="#D62728" fill-opacity="0.9"/><path d="M396.96 34.2667 422 34.2667 422 37.1467 396.96 37.1467Z" fill="#9467BD" fill-opacity="0.9"/><path d="M369.147 34.7867 394.187 34.7867 394.187 38.2 369.147 38.2Z" fill="#9467BD" fill-opacity="0.9"/><path d="M341.32 34.4133 366.36 34.4133 366.36 37.5467 341.32 37.5467Z" fill="#9467BD" fill-opacity="0.9"/><path d="M424.787 34.2 449.827 34.2 449.827 38.84 424.787 38.84Z" fill="#9467BD" fill-opacity="0.9"/><path d="M396.96 34.2267 422 34.2267 422 34.2573 396.96 34.2573Z" fill="#8C564B" fill-opacity="0.9"/><path d="M369.147 34.7333 394.187 34.7333 394.187 34.7867 369.147 34.7867Z" fill="#8C564B" fill-opacity="0.9"/><path d="M341.32 34.3733 366.36 34.3733 366.36 34.4227 341.32 34.4227Z" fill="#8C564B" fill-opacity="0.9"/><path d="M424.787 34.12 449.827 34.12 449.827 34.2 424.787 34.2Z" fill="#8C564B" fill-opacity="0.9"/><path d="M396.96 33.2667 422 33.2667 422 34.24 396.96 34.24Z" fill="#E377C2" fill-opacity="0.9"/><path d="M369.147 33.3733 394.187 33.3733 394.187 34.7333 369.147 34.7333Z" fill="#E377C2" fill-opacity="0.9"/><path d="M341.32 33.6267 366.36 33.6267 366.36 34.3733 341.32 34.3733Z" fill="#E377C2" fill-opacity="0.9"/><path d="M424.787 33.6267 449.827 33.6267 449.827 34.12 424.787 34.12Z" fill="#E377C2" fill-opacity="0.9"/><path d="M396.96 33.24 422 33.24 422 33.264 396.96 33.264Z" fill="#7F7F7F" fill-opacity="0.9"/><path d="M369.147 33.3467 394.187 33.3467 394.187 33.372 369.147 33.372Z" fill="#7F7F7F" fill-opacity="0.9"/><path d="M341.32 33.52 366.36 33.52 366.36 33.6293 341.32 33.6293Z" fill="#7F7F7F" fill-opacity="0.9"/><path d="M424.787 33.5067 449.827 33.5067 449.827 33.6267 424.787 33.6267Z" fill="#7F7F7F" fill-opacity="0.9"/><path d="M396.96 33.0933 422 33.0933 422 33.24 396.96 33.24Z" fill="#BCBD22" fill-opacity="0.9"/><path d="M369.147 33.2133 394.187 33.2133 394.187 33.3467 369.147 33.3467Z" fill="#BCBD22" fill-opacity="0.9"/><path d="M341.32 33.1467 366.36 33.1467 366.36 33.52 341.32 33.52Z" fill="#BCBD22" fill-opacity="0.9"/><path d="M424.787 33.1467 449.827 33.1467 449.827 33.5067 424.787 33.5067Z" fill="#BCBD22" fill-opacity="0.9"/><path d="M396.96 33.0533 422 33.0533 422 33.0933 396.96 33.0933Z" fill="#17BECF" fill-opacity="0.9"/><path d="M369.147 33.04 394.187 33.04 394.187 33.2133 369.147 33.2133Z" fill="#17BECF" fill-opacity="0.9"/><path d="M341.32 33.12 366.36 33.12 366.36 33.1413 341.32 33.1413Z" fill="#17BECF" fill-opacity="0.9"/><path d="M424.787 33.1333 449.827 33.1333 449.827 33.1467 424.787 33.1467Z" fill="#17BECF" fill-opacity="0.9"/><path d="M396.96 32.92 422 32.92 422 33.0453 396.96 33.0453Z" fill="#AEC7E8" fill-opacity="0.9"/><path d="M369.147 32.92 394.187 32.92 394.187 33.036 369.147 33.036Z" fill="#AEC7E8" fill-opacity="0.9"/><path d="M341.32 32.92 366.36 32.92 366.36 33.12 341.32 33.12Z" fill="#AEC7E8" fill-opacity="0.9"/><path d="M424.787 32.92 449.827 32.92 449.827 33.12 424.787 33.12Z" fill="#AEC7E8" fill-opacity="0.9"/><path d="M337.147 29.8667 453.987 29.8667 453.987 342.013 337.147 342.013Z" stroke="#333333" stroke-width="1.42667" stroke-linecap="round" stroke-linejoin="round" stroke-miterlimit="10" fill="none"/></g><g clip-path="url(#clip6)"><path d="M461.293 29.8667 578.133 29.8667 578.133 342.013 461.293 342.013Z" fill="#FFFFFF"/><path d="M521.107 176.053 546.147 176.053 546.147 338.947 521.107 338.947Z" fill="#1F77B4" fill-opacity="0.9"/><path d="M493.293 92.0533 518.333 92.0533 518.333 338.947 493.293 338.947Z" fill="#1F77B4" fill-opacity="0.9"/><path d="M465.467 196.04 490.507 196.04 490.507 338.933 465.467 338.933Z" fill="#1F77B4" fill-opacity="0.9"/><path d="M548.933 186.227 573.973 186.227 573.973 338.947 548.933 338.947Z" fill="#1F77B4" fill-opacity="0.9"/><path d="M521.107 94.04 546.147 94.04 546.147 176.053 521.107 176.053Z" fill="#FF7F0E" fill-opacity="0.9"/><path d="M493.293 54.7333 518.333 54.7333 518.333 92.0667 493.293 92.0667Z" fill="#FF7F0E" fill-opacity="0.9"/><path d="M465.467 127.573 490.507 127.573 490.507 196.04 465.467 196.04Z" fill="#FF7F0E" fill-opacity="0.9"/><path d="M548.933 113.12 573.973 113.12 573.973 186.227 548.933 186.227Z" fill="#FF7F0E" fill-opacity="0.9"/><path d="M521.107 66.2267 546.147 66.2267 546.147 94.0267 521.107 94.0267Z" fill="#2CA02C" fill-opacity="0.9"/><path d="M493.293 44.44 518.333 44.44 518.333 54.7333 493.293 54.7333Z" fill="#2CA02C" fill-opacity="0.9"/><path d="M465.467 108.72 490.507 108.72 490.507 127.573 465.467 127.573Z" fill="#2CA02C" fill-opacity="0.9"/><path d="M548.933 82.8533 573.973 82.8533 573.973 113.12 548.933 113.12Z" fill="#2CA02C" fill-opacity="0.9"/><path d="M521.107 43.4533 546.147 43.4533 546.147 66.2267 521.107 66.2267Z" fill="#D62728" fill-opacity="0.9"/><path d="M493.293 38.4933 518.333 38.4933 518.333 44.44 493.293 44.44Z" fill="#D62728" fill-opacity="0.9"/><path d="M465.467 42.7733 490.507 42.7733 490.507 108.72 465.467 108.72Z" fill="#D62728" fill-opacity="0.9"/><path d="M548.933 47.4267 573.973 47.4267 573.973 82.84 548.933 82.84Z" fill="#D62728" fill-opacity="0.9"/><path d="M521.107 38.2667 546.147 38.2667 546.147 43.4533 521.107 43.4533Z" fill="#9467BD" fill-opacity="0.9"/><path d="M493.293 37.4533 518.333 37.4533 518.333 38.4933 493.293 38.4933Z" fill="#9467BD" fill-opacity="0.9"/><path d="M465.467 38.8267 490.507 38.8267 490.507 42.7733 465.467 42.7733Z" fill="#9467BD" fill-opacity="0.9"/><path d="M548.933 42.9333 573.973 42.9333 573.973 47.4267 548.933 47.4267Z" fill="#9467BD" fill-opacity="0.9"/><path d="M521.107 36.08 546.147 36.08 546.147 38.2667 521.107 38.2667Z" fill="#8C564B" fill-opacity="0.9"/><path d="M493.293 34.24 518.333 34.24 518.333 37.4533 493.293 37.4533Z" fill="#8C564B" fill-opacity="0.9"/><path d="M465.467 35.5867 490.507 35.5867 490.507 38.8267 465.467 38.8267Z" fill="#8C564B" fill-opacity="0.9"/><path d="M548.933 37.2 573.973 37.2 573.973 42.9333 548.933 42.9333Z" fill="#8C564B" fill-opacity="0.9"/><path d="M521.107 33.6667 546.147 33.6667 546.147 36.08 521.107 36.08Z" fill="#E377C2" fill-opacity="0.9"/><path d="M493.293 33.44 518.333 33.44 518.333 34.24 493.293 34.24Z" fill="#E377C2" fill-opacity="0.9"/><path d="M465.467 34.5067 490.507 34.5067 490.507 35.5867 465.467 35.5867Z" fill="#E377C2" fill-opacity="0.9"/><path d="M548.933 34.3067 573.973 34.3067 573.973 37.2 548.933 37.2Z" fill="#E377C2" fill-opacity="0.9"/><path d="M521.107 33.3733 546.147 33.3733 546.147 33.68 521.107 33.68Z" fill="#7F7F7F" fill-opacity="0.9"/><path d="M493.293 33.32 518.333 33.32 518.333 33.4387 493.293 33.4387Z" fill="#7F7F7F" fill-opacity="0.9"/><path d="M465.467 33.7867 490.507 33.7867 490.507 34.52 465.467 34.52Z" fill="#7F7F7F" fill-opacity="0.9"/><path d="M548.933 33.7333 573.973 33.7333 573.973 34.3067 548.933 34.3067Z" fill="#7F7F7F" fill-opacity="0.9"/><path d="M521.107 33.1867 546.147 33.1867 546.147 33.36 521.107 33.36Z" fill="#BCBD22" fill-opacity="0.9"/><path d="M493.293 33.32 518.333 33.32 518.333 33.3223 493.293 33.3223Z" fill="#BCBD22" fill-opacity="0.9"/><path d="M465.467 33.5733 490.507 33.5733 490.507 33.7867 465.467 33.7867Z" fill="#BCBD22" fill-opacity="0.9"/><path d="M548.933 33.72 573.973 33.72 573.973 33.7255 548.933 33.7255Z" fill="#BCBD22" fill-opacity="0.9"/><path d="M521.107 33.16 546.147 33.16 546.147 33.192 521.107 33.192Z" fill="#17BECF" fill-opacity="0.9"/><path d="M493.293 33.0133 518.333 33.0133 518.333 33.3067 493.293 33.3067Z" fill="#17BECF" fill-opacity="0.9"/><path d="M465.467 33.56 490.507 33.56 490.507 33.58 465.467 33.58Z" fill="#17BECF" fill-opacity="0.9"/><path d="M548.933 33.56 573.973 33.56 573.973 33.72 548.933 33.72Z" fill="#17BECF" fill-opacity="0.9"/><path d="M521.107 32.92 546.147 32.92 546.147 33.16 521.107 33.16Z" fill="#AEC7E8" fill-opacity="0.9"/><path d="M493.293 32.92 518.333 32.92 518.333 33.016 493.293 33.016Z" fill="#AEC7E8" fill-opacity="0.9"/><path d="M465.467 32.92 490.507 32.92 490.507 33.5467 465.467 33.5467Z" fill="#AEC7E8" fill-opacity="0.9"/><path d="M548.933 32.92 573.973 32.92 573.973 33.56 548.933 33.56Z" fill="#AEC7E8" fill-opacity="0.9"/><path d="M461.293 29.8667 578.133 29.8667 578.133 342.013 461.293 342.013Z" stroke="#333333" stroke-width="1.42667" stroke-linecap="round" stroke-linejoin="round" stroke-miterlimit="10" fill="none"/></g><g clip-path="url(#clip7)"><path d="M585.453 29.8667 702.293 29.8667 702.293 342.013 585.453 342.013Z" fill="#FFFFFF"/><path d="M646.533 143.24 694.333 143.24 694.333 338.947 646.533 338.947Z" fill="#1F77B4" fill-opacity="0.9"/><path d="M593.413 115.893 641.213 115.893 641.213 338.947 593.413 338.947Z" fill="#1F77B4" fill-opacity="0.9"/><path d="M646.533 132.667 694.333 132.667 694.333 143.24 646.533 143.24Z" fill="#FF7F0E" fill-opacity="0.9"/><path d="M593.413 96.4267 641.213 96.4267 641.213 115.893 593.413 115.893Z" fill="#FF7F0E" fill-opacity="0.9"/><path d="M646.533 77.04 694.333 77.04 694.333 132.667 646.533 132.667Z" fill="#2CA02C" fill-opacity="0.9"/><path d="M593.413 64.9467 641.213 64.9467 641.213 96.4267 593.413 96.4267Z" fill="#2CA02C" fill-opacity="0.9"/><path d="M646.533 43.3733 694.333 43.3733 694.333 77.0533 646.533 77.0533Z" fill="#D62728" fill-opacity="0.9"/><path d="M593.413 37.3067 641.213 37.3067 641.213 64.9467 593.413 64.9467Z" fill="#D62728" fill-opacity="0.9"/><path d="M646.533 41.56 694.333 41.56 694.333 43.3733 646.533 43.3733Z" fill="#9467BD" fill-opacity="0.9"/><path d="M593.413 35.5867 641.213 35.5867 641.213 37.3067 593.413 37.3067Z" fill="#9467BD" fill-opacity="0.9"/><path d="M646.533 35.1467 694.333 35.1467 694.333 41.56 646.533 41.56Z" fill="#8C564B" fill-opacity="0.9"/><path d="M593.413 34.7867 641.213 34.7867 641.213 35.5867 593.413 35.5867Z" fill="#8C564B" fill-opacity="0.9"/><path d="M646.533 34.1467 694.333 34.1467 694.333 35.1467 646.533 35.1467Z" fill="#E377C2" fill-opacity="0.9"/><path d="M593.413 33.8 641.213 33.8 641.213 34.7867 593.413 34.7867Z" fill="#E377C2" fill-opacity="0.9"/><path d="M646.533 33.48 694.333 33.48 694.333 34.1467 646.533 34.1467Z" fill="#7F7F7F" fill-opacity="0.9"/><path d="M593.413 33.4667 641.213 33.4667 641.213 33.8 593.413 33.8Z" fill="#7F7F7F" fill-opacity="0.9"/><path d="M646.533 33.4667 694.333 33.4667 694.333 33.4741 646.533 33.4741Z" fill="#BCBD22" fill-opacity="0.9"/><path d="M593.413 33.4667 641.213 33.4667 641.213 33.4724 593.413 33.4724Z" fill="#BCBD22" fill-opacity="0.9"/><path d="M646.533 33.4133 694.333 33.4133 694.333 33.4773 646.533 33.4773Z" fill="#17BECF" fill-opacity="0.9"/><path d="M593.413 33.32 641.213 33.32 641.213 33.4667 593.413 33.4667Z" fill="#17BECF" fill-opacity="0.9"/><path d="M646.533 32.92 694.333 32.92 694.333 33.4 646.533 33.4Z" fill="#AEC7E8" fill-opacity="0.9"/><path d="M593.413 32.92 641.213 32.92 641.213 33.32 593.413 33.32Z" fill="#AEC7E8" fill-opacity="0.9"/><path d="M585.453 29.8667 702.293 29.8667 702.293 342.013 585.453 342.013Z" stroke="#333333" stroke-width="1.42667" stroke-linecap="round" stroke-linejoin="round" stroke-miterlimit="10" fill="none"/></g><g clip-path="url(#clip8)"><path d="M337.147 7.30667 453.987 7.30667 453.987 29.8667 337.147 29.8667Z" stroke="#333333" stroke-width="1.42667" stroke-linecap="round" stroke-linejoin="round" stroke-miterlimit="10" fill="#D9D9D9"/><text fill="#1A1A1A" font-family="Arial,Arial_MSFontService,sans-serif" font-weight="400" font-size="9" transform="matrix(1.33333 0 0 1.33333 376.907 23)">Day</text><text fill="#1A1A1A" font-family="Arial,Arial_MSFontService,sans-serif" font-weight="400" font-size="9" transform="matrix(1.33333 0 0 1.33333 400.907 23)">10</text></g><g clip-path="url(#clip9)"><path d="M461.293 7.30667 578.133 7.30667 578.133 29.8667 461.293 29.8667Z" stroke="#333333" stroke-width="1.42667" stroke-linecap="round" stroke-linejoin="round" stroke-miterlimit="10" fill="#D9D9D9"/><text fill="#1A1A1A" font-family="Arial,Arial_MSFontService,sans-serif" font-weight="400" font-size="9" transform="matrix(1.33333 0 0 1.33333 501.053 23)">Day</text><text fill="#1A1A1A" font-family="Arial,Arial_MSFontService,sans-serif" font-weight="400" font-size="9" transform="matrix(1.33333 0 0 1.33333 525.053 23)">25</text></g><g clip-path="url(#clip10)"><path d="M585.453 7.30667 702.293 7.30667 702.293 29.8667 585.453 29.8667Z" stroke="#333333" stroke-width="1.42667" stroke-linecap="round" stroke-linejoin="round" stroke-miterlimit="10" fill="#D9D9D9"/><text fill="#1A1A1A" font-family="Arial,Arial_MSFontService,sans-serif" font-weight="400" font-size="9" transform="matrix(1.33333 0 0 1.33333 625.2 23)">Day</text><text fill="#1A1A1A" font-family="Arial,Arial_MSFontService,sans-serif" font-weight="400" font-size="9" transform="matrix(1.33333 0 0 1.33333 649.2 23)">60</text></g><g clip-path="url(#clip11)"><path d="M353.84 345.653 353.84 342" stroke="#333333" stroke-width="1.42667" stroke-linejoin="round" stroke-miterlimit="10" fill="none"/><path d="M381.653 345.653 381.653 342" stroke="#333333" stroke-width="1.42667" stroke-linejoin="round" stroke-miterlimit="10" fill="none"/><path d="M409.48 345.653 409.48 342" stroke="#333333" stroke-width="1.42667" stroke-linejoin="round" stroke-miterlimit="10" fill="none"/><path d="M437.307 345.653 437.307 342" stroke="#333333" stroke-width="1.42667" stroke-linejoin="round" stroke-miterlimit="10" fill="none"/><text fill="#4D4D4D" font-family="Arial,Arial_MSFontService,sans-serif" font-weight="400" font-size="9" transform="matrix(1.33333 0 0 1.33333 345.173 357)">CK</text><text fill="#4D4D4D" font-family="Arial,Arial_MSFontService,sans-serif" font-weight="400" font-size="9" transform="matrix(1.33333 0 0 1.33333 372.987 357)">AD</text><text fill="#4D4D4D" font-family="Arial,Arial_MSFontService,sans-serif" font-weight="400" font-size="9" transform="matrix(1.33333 0 0 1.33333 396.147 357)">AOM</text><text fill="#4D4D4D" font-family="Arial,Arial_MSFontService,sans-serif" font-weight="400" font-size="9" transform="matrix(1.33333 0 0 1.33333 428.64 357)">DA</text><path d="M477.987 345.653 477.987 342" stroke="#333333" stroke-width="1.42667" stroke-linejoin="round" stroke-miterlimit="10" fill="none"/><path d="M505.813 345.653 505.813 342" stroke="#333333" stroke-width="1.42667" stroke-linejoin="round" stroke-miterlimit="10" fill="none"/><path d="M533.627 345.653 533.627 342" stroke="#333333" stroke-width="1.42667" stroke-linejoin="round" stroke-miterlimit="10" fill="none"/><path d="M561.453 345.653 561.453 342" stroke="#333333" stroke-width="1.42667" stroke-linejoin="round" stroke-miterlimit="10" fill="none"/><text fill="#4D4D4D" font-family="Arial,Arial_MSFontService,sans-serif" font-weight="400" font-size="9" transform="matrix(1.33333 0 0 1.33333 469.32 357)">CK</text><text fill="#4D4D4D" font-family="Arial,Arial_MSFontService,sans-serif" font-weight="400" font-size="9" transform="matrix(1.33333 0 0 1.33333 497.147 357)">AD</text><text fill="#4D4D4D" font-family="Arial,Arial_MSFontService,sans-serif" font-weight="400" font-size="9" transform="matrix(1.33333 0 0 1.33333 520.293 357)">AOM</text><text fill="#4D4D4D" font-family="Arial,Arial_MSFontService,sans-serif" font-weight="400" font-size="9" transform="matrix(1.33333 0 0 1.33333 552.787 357)">DA</text><path d="M617.32 345.653 617.32 342" stroke="#333333" stroke-width="1.42667" stroke-linejoin="round" stroke-miterlimit="10" fill="none"/><path d="M670.427 345.653 670.427 342" stroke="#333333" stroke-width="1.42667" stroke-linejoin="round" stroke-miterlimit="10" fill="none"/><text fill="#4D4D4D" font-family="Arial,Arial_MSFontService,sans-serif" font-weight="400" font-size="9" transform="matrix(1.33333 0 0 1.33333 608.653 357)">CK</text><text fill="#4D4D4D" font-family="Arial,Arial_MSFontService,sans-serif" font-weight="400" font-size="9" transform="matrix(1.33333 0 0 1.33333 661.76 357)">AD</text><text fill="#4D4D4D" font-family="Arial,Arial_MSFontService,sans-serif" font-weight="400" font-size="9" transform="matrix(1.33333 0 0 1.33333 313.24 343)">0</text><text fill="#4D4D4D" font-family="Arial,Arial_MSFontService,sans-serif" font-weight="400" font-size="9" transform="matrix(1.33333 0 0 1.33333 319.907 343)">%</text><text fill="#4D4D4D" font-family="Arial,Arial_MSFontService,sans-serif" font-weight="400" font-size="9" transform="matrix(1.33333 0 0 1.33333 306.573 267)">25</text><text fill="#4D4D4D" font-family="Arial,Arial_MSFontService,sans-serif" font-weight="400" font-size="9" transform="matrix(1.33333 0 0 1.33333 319.907 267)">%</text><text fill="#4D4D4D" font-family="Arial,Arial_MSFontService,sans-serif" font-weight="400" font-size="9" transform="matrix(1.33333 0 0 1.33333 306.573 190)">50</text><text fill="#4D4D4D" font-family="Arial,Arial_MSFontService,sans-serif" font-weight="400" font-size="9" transform="matrix(1.33333 0 0 1.33333 319.907 190)">%</text><text fill="#4D4D4D" font-family="Arial,Arial_MSFontService,sans-serif" font-weight="400" font-size="9" transform="matrix(1.33333 0 0 1.33333 306.573 114)">75</text><text fill="#4D4D4D" font-family="Arial,Arial_MSFontService,sans-serif" font-weight="400" font-size="9" transform="matrix(1.33333 0 0 1.33333 319.907 114)">%</text><text fill="#4D4D4D" font-family="Arial,Arial_MSFontService,sans-serif" font-weight="400" font-size="9" transform="matrix(1.33333 0 0 1.33333 299.907 37)">100</text><text fill="#4D4D4D" font-family="Arial,Arial_MSFontService,sans-serif" font-weight="400" font-size="9" transform="matrix(1.33333 0 0 1.33333 319.907 37)">%</text><path d="M333.493 338.947 337.147 338.947" stroke="#333333" stroke-width="1.42667" stroke-linejoin="round" stroke-miterlimit="10" fill="none"/><path d="M333.493 262.44 337.147 262.44" stroke="#333333" stroke-width="1.42667" stroke-linejoin="round" stroke-miterlimit="10" fill="none"/><path d="M333.493 185.933 337.147 185.933" stroke="#333333" stroke-width="1.42667" stroke-linejoin="round" stroke-miterlimit="10" fill="none"/><path d="M333.493 109.427 337.147 109.427" stroke="#333333" stroke-width="1.42667" stroke-linejoin="round" stroke-miterlimit="10" fill="none"/><path d="M333.493 32.92 337.147 32.92" stroke="#333333" stroke-width="1.42667" stroke-linejoin="round" stroke-miterlimit="10" fill="none"/><text font-family="Arial,Arial_MSFontService,sans-serif" font-weight="400" font-size="11" transform="matrix(8.16431e-17 -1.33333 1.33333 8.16431e-17 293.813 251)">Relative</text><text font-family="Arial,Arial_MSFontService,sans-serif" font-weight="400" font-size="11" transform="matrix(8.16431e-17 -1.33333 1.33333 8.16431e-17 293.813 201)">_</text><text font-family="Arial,Arial_MSFontService,sans-serif" font-weight="400" font-size="11" transform="matrix(8.16431e-17 -1.33333 1.33333 8.16431e-17 293.813 193)">abundance</text><path d="M716.907 41.4533 844.693 41.4533 844.693 330.4 716.907 330.4Z" fill="#FFFFFF"/><text font-family="Arial,Arial_MSFontService,sans-serif" font-weight="400" font-size="11" transform="matrix(1.33333 0 0 1.33333 724.213 61)">Phylum</text><path d="M724.213 69.6667 747.253 69.6667 747.253 92.7067 724.213 92.7067Z" fill="#FFFFFF"/><path d="M725.16 70.6133 746.307 70.6133 746.307 91.76 725.16 91.76Z" fill="#AEC7E8" fill-opacity="0.9"/><path d="M724.213 92.7067 747.253 92.7067 747.253 115.747 724.213 115.747Z" fill="#FFFFFF"/><path d="M725.16 93.6533 746.307 93.6533 746.307 114.8 725.16 114.8Z" fill="#17BECF" fill-opacity="0.9"/><path d="M724.213 115.747 747.253 115.747 747.253 138.787 724.213 138.787Z" fill="#FFFFFF"/><path d="M725.16 116.693 746.307 116.693 746.307 137.84 725.16 137.84Z" fill="#BCBD22" fill-opacity="0.9"/><path d="M724.213 138.787 747.253 138.787 747.253 161.827 724.213 161.827Z" fill="#FFFFFF"/><path d="M725.16 139.733 746.307 139.733 746.307 160.88 725.16 160.88Z" fill="#7F7F7F" fill-opacity="0.9"/><path d="M724.213 161.827 747.253 161.827 747.253 184.867 724.213 184.867Z" fill="#FFFFFF"/><path d="M725.16 162.773 746.307 162.773 746.307 183.92 725.16 183.92Z" fill="#E377C2" fill-opacity="0.9"/><path d="M724.213 184.867 747.253 184.867 747.253 207.907 724.213 207.907Z" fill="#FFFFFF"/><path d="M725.16 185.813 746.307 185.813 746.307 206.96 725.16 206.96Z" fill="#8C564B" fill-opacity="0.9"/><path d="M724.213 207.907 747.253 207.907 747.253 230.947 724.213 230.947Z" fill="#FFFFFF"/><path d="M725.16 208.853 746.307 208.853 746.307 230 725.16 230Z" fill="#9467BD" fill-opacity="0.9"/><path d="M724.213 230.947 747.253 230.947 747.253 253.987 724.213 253.987Z" fill="#FFFFFF"/><path d="M725.16 231.893 746.307 231.893 746.307 253.04 725.16 253.04Z" fill="#D62728" fill-opacity="0.9"/><path d="M724.213 253.987 747.253 253.987 747.253 277.027 724.213 277.027Z" fill="#FFFFFF"/><path d="M725.16 254.933 746.307 254.933 746.307 276.08 725.16 276.08Z" fill="#2CA02C" fill-opacity="0.9"/><path d="M724.213 277.027 747.253 277.027 747.253 300.067 724.213 300.067Z" fill="#FFFFFF"/><path d="M725.16 277.973 746.307 277.973 746.307 299.12 725.16 299.12Z" fill="#FF7F0E" fill-opacity="0.9"/><path d="M724.213 300.067 747.253 300.067 747.253 323.107 724.213 323.107Z" fill="#FFFFFF"/><path d="M725.16 301.013 746.307 301.013 746.307 322.16 725.16 322.16Z" fill="#1F77B4" fill-opacity="0.9"/><text font-family="Arial,Arial_MSFontService,sans-serif" font-weight="400" font-size="9" transform="matrix(1.33333 0 0 1.33333 754.56 85)">Other</text><text font-family="Arial,Arial_MSFontService,sans-serif" font-weight="400" font-size="9" transform="matrix(1.33333 0 0 1.33333 754.56 108)">Tenericutes</text><text font-family="Arial,Arial_MSFontService,sans-serif" font-weight="400" font-size="9" transform="matrix(1.33333 0 0 1.33333 754.56 131)">Nitrospinae</text><text font-family="Arial,Arial_MSFontService,sans-serif" font-weight="400" font-size="9" transform="matrix(1.33333 0 0 1.33333 754.56 155)">Acidobacteria</text><text font-family="Arial,Arial_MSFontService,sans-serif" font-weight="400" font-size="9" transform="matrix(1.33333 0 0 1.33333 754.56 178)">Firmicutes</text><text font-family="Arial,Arial_MSFontService,sans-serif" font-weight="400" font-size="9" transform="matrix(1.33333 0 0 1.33333 754.56 201)">Balneolaeota</text><text font-family="Arial,Arial_MSFontService,sans-serif" font-weight="400" font-size="9" transform="matrix(1.33333 0 0 1.33333 754.56 224)">Actinobacteria</text><text font-family="Arial,Arial_MSFontService,sans-serif" font-weight="400" font-size="9" transform="matrix(1.33333 0 0 1.33333 754.56 247)">unclassified</text><text font-family="Arial,Arial_MSFontService,sans-serif" font-weight="400" font-size="9" transform="matrix(1.33333 0 0 1.33333 754.56 270)">Planctomycetes</text><text font-family="Arial,Arial_MSFontService,sans-serif" font-weight="400" font-size="9" transform="matrix(1.33333 0 0 1.33333 754.56 293)">Bacteroidetes</text><text font-family="Arial,Arial_MSFontService,sans-serif" font-weight="400" font-size="9" transform="matrix(1.33333 0 0 1.33333 754.56 316)">Proteobacteria</text></g></g></g></g><g clip-path="url(#clip12)"><g clip-path="url(#clip13)"><g clip-path="url(#clip14)"><path d="M276 363 837 363 837 737 276 737Z" fill="#FFFFFF"/><g clip-path="url(#clip15)"><path d="M276 363 837 363 837 737 276 737Z" stroke="#FFFFFF" stroke-width="1.38951" stroke-linecap="round" stroke-linejoin="round" stroke-miterlimit="10" fill="#FFFFFF"/></g><g clip-path="url(#clip16)"><path d="M335.554 392.089 454.014 392.089 454.014 696.107 335.554 696.107Z" fill="#FFFFFF"/><path d="M396.186 576.79 421.574 576.79 421.574 693.12 396.186 693.12Z" fill="#5050FF" fill-opacity="0.9"/><path d="M367.994 587.971 393.381 587.971 393.381 693.12 367.994 693.12Z" fill="#5050FF" fill-opacity="0.9"/><path d="M339.788 591.984 365.176 591.984 365.176 693.12 339.788 693.12Z" fill="#5050FF" fill-opacity="0.9"/><path d="M424.392 598.178 449.78 598.178 449.78 693.12 424.392 693.12Z" fill="#5050FF" fill-opacity="0.9"/><path d="M396.186 555.636 421.574 555.636 421.574 576.79 396.186 576.79Z" fill="#CE3D32" fill-opacity="0.9"/><path d="M367.994 564.973 393.381 564.973 393.381 587.971 367.994 587.971Z" fill="#CE3D32" fill-opacity="0.9"/><path d="M339.788 546.52 365.176 546.52 365.176 591.984 339.788 591.984Z" fill="#CE3D32" fill-opacity="0.9"/><path d="M424.392 547.026 449.78 547.026 449.78 598.178 424.392 598.178Z" fill="#CE3D32" fill-opacity="0.9"/><path d="M396.186 539.611 421.574 539.611 421.574 555.636 396.186 555.636Z" fill="#749B58" fill-opacity="0.9"/><path d="M367.994 546.689 393.381 546.689 393.381 564.973 367.994 564.973Z" fill="#749B58" fill-opacity="0.9"/><path d="M339.788 542.52 365.176 542.52 365.176 546.52 339.788 546.52Z" fill="#749B58" fill-opacity="0.9"/><path d="M424.392 539.066 449.78 539.066 449.78 547.026 424.392 547.026Z" fill="#749B58" fill-opacity="0.9"/><path d="M396.186 538.975 421.574 538.975 421.574 539.624 396.186 539.624Z" fill="#F0E685" fill-opacity="0.9"/><path d="M367.994 545.338 393.381 545.338 393.381 546.676 367.994 546.676Z" fill="#F0E685" fill-opacity="0.9"/><path d="M339.788 541.611 365.176 541.611 365.176 542.52 339.788 542.52Z" fill="#F0E685" fill-opacity="0.9"/><path d="M424.392 537.741 449.78 537.741 449.78 539.066 424.392 539.066Z" fill="#F0E685" fill-opacity="0.9"/><path d="M396.186 526.235 421.574 526.235 421.574 538.962 396.186 538.962Z" fill="#466983" fill-opacity="0.9"/><path d="M367.994 528.612 393.381 528.612 393.381 545.351 367.994 545.351Z" fill="#466983" fill-opacity="0.9"/><path d="M339.788 536.481 365.176 536.481 365.176 541.611 339.788 541.611Z" fill="#466983" fill-opacity="0.9"/><path d="M424.392 534.663 449.78 534.663 449.78 537.741 424.392 537.741Z" fill="#466983" fill-opacity="0.9"/><path d="M396.186 513.275 421.574 513.275 421.574 526.235 396.186 526.235Z" fill="#BA6338" fill-opacity="0.9"/><path d="M367.994 514.054 393.381 514.054 393.381 528.612 367.994 528.612Z" fill="#BA6338" fill-opacity="0.9"/><path d="M339.788 519.781 365.176 519.781 365.176 536.481 339.788 536.481Z" fill="#BA6338" fill-opacity="0.9"/><path d="M424.392 518.08 449.78 518.08 449.78 534.663 424.392 534.663Z" fill="#BA6338" fill-opacity="0.9"/><path d="M396.186 512.574 421.574 512.574 421.574 513.275 396.186 513.275Z" fill="#5DB1DD" fill-opacity="0.9"/><path d="M367.994 513.314 393.381 513.314 393.381 514.041 367.994 514.041Z" fill="#5DB1DD" fill-opacity="0.9"/><path d="M339.788 518.574 365.176 518.574 365.176 519.781 339.788 519.781Z" fill="#5DB1DD" fill-opacity="0.9"/><path d="M424.392 516.976 449.78 516.976 449.78 518.08 424.392 518.08Z" fill="#5DB1DD" fill-opacity="0.9"/><path d="M396.186 504.081 421.574 504.081 421.574 512.574 396.186 512.574Z" fill="#802268" fill-opacity="0.9"/><path d="M367.994 504.25 393.381 504.25 393.381 513.327 367.994 513.327Z" fill="#802268" fill-opacity="0.9"/><path d="M339.788 507.847 365.176 507.847 365.176 518.574 339.788 518.574Z" fill="#802268" fill-opacity="0.9"/><path d="M424.392 506.925 449.78 506.925 449.78 516.989 424.392 516.989Z" fill="#802268" fill-opacity="0.9"/><path d="M396.186 502.744 421.574 502.744 421.574 504.068 396.186 504.068Z" fill="#6BD76B" fill-opacity="0.9"/><path d="M367.994 503.029 393.381 503.029 393.381 504.25 367.994 504.25Z" fill="#6BD76B" fill-opacity="0.9"/><path d="M339.788 505.094 365.176 505.094 365.176 507.847 339.788 507.847Z" fill="#6BD76B" fill-opacity="0.9"/><path d="M424.392 503.925 449.78 503.925 449.78 506.925 424.392 506.925Z" fill="#6BD76B" fill-opacity="0.9"/><path d="M396.186 500.289 421.574 500.289 421.574 502.757 396.186 502.757Z" fill="#D595A7" fill-opacity="0.9"/><path d="M367.994 500.757 393.381 500.757 393.381 503.029 367.994 503.029Z" fill="#D595A7" fill-opacity="0.9"/><path d="M339.788 502.276 365.176 502.276 365.176 505.094 339.788 505.094Z" fill="#D595A7" fill-opacity="0.9"/><path d="M424.392 495.978 449.78 495.978 449.78 503.925 424.392 503.925Z" fill="#D595A7" fill-opacity="0.9"/><path d="M396.186 395.063 421.574 395.063 421.574 500.276 396.186 500.276Z" fill="#924822" fill-opacity="0.9"/><path d="M367.994 395.063 393.381 395.063 393.381 500.757 367.994 500.757Z" fill="#924822" fill-opacity="0.9"/><path d="M339.788 395.063 365.176 395.063 365.176 502.276 339.788 502.276Z" fill="#924822" fill-opacity="0.9"/><path d="M424.392 395.063 449.78 395.063 449.78 495.978 424.392 495.978Z" fill="#924822" fill-opacity="0.9"/><path d="M335.554 392.089 454.014 392.089 454.014 696.107 335.554 696.107Z" stroke="#333333" stroke-width="1.38951" stroke-linecap="round" stroke-linejoin="round" stroke-miterlimit="10" fill="none"/></g><g clip-path="url(#clip17)"><path d="M461.13 392.089 579.589 392.089 579.589 696.107 461.13 696.107Z" fill="#FFFFFF"/><path d="M521.762 677.835 547.15 677.835 547.15 693.12 521.762 693.12Z" fill="#5050FF" fill-opacity="0.9"/><path d="M493.556 677.991 518.944 677.991 518.944 693.12 493.556 693.12Z" fill="#5050FF" fill-opacity="0.9"/><path d="M465.35 670.966 490.738 670.966 490.738 693.12 465.35 693.12Z" fill="#5050FF" fill-opacity="0.9"/><path d="M549.968 655.356 575.356 655.356 575.356 693.12 549.968 693.12Z" fill="#5050FF" fill-opacity="0.9"/><path d="M521.762 635.293 547.15 635.293 547.15 677.835 521.762 677.835Z" fill="#CE3D32" fill-opacity="0.9"/><path d="M493.556 660.382 518.944 660.382 518.944 677.991 493.556 677.991Z" fill="#CE3D32" fill-opacity="0.9"/><path d="M465.35 579.232 490.738 579.232 490.738 670.979 465.35 670.979Z" fill="#CE3D32" fill-opacity="0.9"/><path d="M549.968 593.568 575.356 593.568 575.356 655.356 549.968 655.356Z" fill="#CE3D32" fill-opacity="0.9"/><path d="M521.762 576.596 547.15 576.596 547.15 635.293 521.762 635.293Z" fill="#749B58" fill-opacity="0.9"/><path d="M493.556 558.051 518.944 558.051 518.944 660.382 493.556 660.382Z" fill="#749B58" fill-opacity="0.9"/><path d="M465.35 559.805 490.738 559.805 490.738 579.219 465.35 579.219Z" fill="#749B58" fill-opacity="0.9"/><path d="M549.968 572.349 575.356 572.349 575.356 593.568 549.968 593.568Z" fill="#749B58" fill-opacity="0.9"/><path d="M521.762 554.246 547.15 554.246 547.15 576.609 521.762 576.609Z" fill="#F0E685" fill-opacity="0.9"/><path d="M493.556 495.978 518.944 495.978 518.944 558.051 493.556 558.051Z" fill="#F0E685" fill-opacity="0.9"/><path d="M465.35 555.156 490.738 555.156 490.738 559.818 465.35 559.818Z" fill="#F0E685" fill-opacity="0.9"/><path d="M549.968 552.428 575.356 552.428 575.356 572.336 549.968 572.336Z" fill="#F0E685" fill-opacity="0.9"/><path d="M521.762 550.61 547.15 550.61 547.15 554.246 521.762 554.246Z" fill="#466983" fill-opacity="0.9"/><path d="M493.556 459.76 518.944 459.76 518.944 495.965 493.556 495.965Z" fill="#466983" fill-opacity="0.9"/><path d="M465.35 554.701 490.738 554.701 490.738 555.156 465.35 555.156Z" fill="#466983" fill-opacity="0.9"/><path d="M549.968 548.909 575.356 548.909 575.356 552.428 549.968 552.428Z" fill="#466983" fill-opacity="0.9"/><path d="M521.762 541.221 547.15 541.221 547.15 550.61 521.762 550.61Z" fill="#BA6338" fill-opacity="0.9"/><path d="M493.556 454.604 518.944 454.604 518.944 459.76 493.556 459.76Z" fill="#BA6338" fill-opacity="0.9"/><path d="M465.35 544.351 490.738 544.351 490.738 554.701 465.35 554.701Z" fill="#BA6338" fill-opacity="0.9"/><path d="M549.968 540.754 575.356 540.754 575.356 548.922 549.968 548.922Z" fill="#BA6338" fill-opacity="0.9"/><path d="M521.762 534.443 547.15 534.443 547.15 541.234 521.762 541.234Z" fill="#5DB1DD" fill-opacity="0.9"/><path d="M493.556 450.968 518.944 450.968 518.944 454.604 493.556 454.604Z" fill="#5DB1DD" fill-opacity="0.9"/><path d="M465.35 537.118 490.738 537.118 490.738 544.351 465.35 544.351Z" fill="#5DB1DD" fill-opacity="0.9"/><path d="M549.968 526.235 575.356 526.235 575.356 540.754 549.968 540.754Z" fill="#5DB1DD" fill-opacity="0.9"/><path d="M521.762 524.625 547.15 524.625 547.15 534.443 521.762 534.443Z" fill="#802268" fill-opacity="0.9"/><path d="M493.556 448.942 518.944 448.942 518.944 450.968 493.556 450.968Z" fill="#802268" fill-opacity="0.9"/><path d="M465.35 531.832 490.738 531.832 490.738 537.118 465.35 537.118Z" fill="#802268" fill-opacity="0.9"/><path d="M549.968 523.197 575.356 523.197 575.356 526.235 549.968 526.235Z" fill="#802268" fill-opacity="0.9"/><path d="M521.762 511.639 547.15 511.639 547.15 524.625 521.762 524.625Z" fill="#6BD76B" fill-opacity="0.9"/><path d="M493.556 440.878 518.944 440.878 518.944 448.942 493.556 448.942Z" fill="#6BD76B" fill-opacity="0.9"/><path d="M465.35 519.781 490.738 519.781 490.738 531.832 465.35 531.832Z" fill="#6BD76B" fill-opacity="0.9"/><path d="M549.968 511.756 575.356 511.756 575.356 523.197 549.968 523.197Z" fill="#6BD76B" fill-opacity="0.9"/><path d="M521.762 497.302 547.15 497.302 547.15 511.639 521.762 511.639Z" fill="#D595A7" fill-opacity="0.9"/><path d="M493.556 438.865 518.944 438.865 518.944 440.891 493.556 440.891Z" fill="#D595A7" fill-opacity="0.9"/><path d="M465.35 509.444 490.738 509.444 490.738 519.781 465.35 519.781Z" fill="#D595A7" fill-opacity="0.9"/><path d="M549.968 506.535 575.356 506.535 575.356 511.756 549.968 511.756Z" fill="#D595A7" fill-opacity="0.9"/><path d="M521.762 395.063 547.15 395.063 547.15 497.302 521.762 497.302Z" fill="#924822" fill-opacity="0.9"/><path d="M493.556 395.063 518.944 395.063 518.944 438.852 493.556 438.852Z" fill="#924822" fill-opacity="0.9"/><path d="M465.35 395.063 490.738 395.063 490.738 509.444 465.35 509.444Z" fill="#924822" fill-opacity="0.9"/><path d="M549.968 395.063 575.356 395.063 575.356 506.535 549.968 506.535Z" fill="#924822" fill-opacity="0.9"/><path d="M461.13 392.089 579.589 392.089 579.589 696.107 461.13 696.107Z" stroke="#333333" stroke-width="1.38951" stroke-linecap="round" stroke-linejoin="round" stroke-miterlimit="10" fill="none"/></g><g clip-path="url(#clip18)"><path d="M586.693 392.089 705.152 392.089 705.152 696.107 586.693 696.107Z" fill="#FFFFFF"/><path d="M648.624 689.003 697.088 689.003 697.088 693.107 648.624 693.107Z" fill="#5050FF" fill-opacity="0.9"/><path d="M594.77 681.757 643.234 681.757 643.234 693.12 594.77 693.12Z" fill="#5050FF" fill-opacity="0.9"/><path d="M648.624 626.293 697.088 626.293 697.088 689.003 648.624 689.003Z" fill="#CE3D32" fill-opacity="0.9"/><path d="M594.77 624.203 643.234 624.203 643.234 681.744 594.77 681.744Z" fill="#CE3D32" fill-opacity="0.9"/><path d="M648.624 592.439 697.088 592.439 697.088 626.293 648.624 626.293Z" fill="#749B58" fill-opacity="0.9"/><path d="M594.77 570.687 643.234 570.687 643.234 624.203 594.77 624.203Z" fill="#749B58" fill-opacity="0.9"/><path d="M648.624 541.416 697.088 541.416 697.088 592.439 648.624 592.439Z" fill="#F0E685" fill-opacity="0.9"/><path d="M594.77 511.873 643.234 511.873 643.234 570.674 594.77 570.674Z" fill="#F0E685" fill-opacity="0.9"/><path d="M648.624 515.015 697.088 515.015 697.088 541.416 648.624 541.416Z" fill="#466983" fill-opacity="0.9"/><path d="M594.77 485.732 643.234 485.732 643.234 511.873 594.77 511.873Z" fill="#466983" fill-opacity="0.9"/><path d="M648.624 510.808 697.088 510.808 697.088 515.015 648.624 515.015Z" fill="#BA6338" fill-opacity="0.9"/><path d="M594.77 481.823 643.234 481.823 643.234 485.732 594.77 485.732Z" fill="#BA6338" fill-opacity="0.9"/><path d="M648.624 474.538 697.088 474.538 697.088 510.808 648.624 510.808Z" fill="#5DB1DD" fill-opacity="0.9"/><path d="M594.77 464.292 643.234 464.292 643.234 481.823 594.77 481.823Z" fill="#5DB1DD" fill-opacity="0.9"/><path d="M648.624 474.018 697.088 474.018 697.088 474.538 648.624 474.538Z" fill="#802268" fill-opacity="0.9"/><path d="M594.77 463.577 643.234 463.577 643.234 464.305 594.77 464.305Z" fill="#802268" fill-opacity="0.9"/><path d="M648.624 472.979 697.088 472.979 697.088 474.018 648.624 474.018Z" fill="#6BD76B" fill-opacity="0.9"/><path d="M594.77 461.798 643.234 461.798 643.234 463.564 594.77 463.564Z" fill="#6BD76B" fill-opacity="0.9"/><path d="M648.624 471.577 697.088 471.577 697.088 472.979 648.624 472.979Z" fill="#D595A7" fill-opacity="0.9"/><path d="M594.77 459.591 643.234 459.591 643.234 461.811 594.77 461.811Z" fill="#D595A7" fill-opacity="0.9"/><path d="M648.624 395.063 697.088 395.063 697.088 471.577 648.624 471.577Z" fill="#924822" fill-opacity="0.9"/><path d="M594.77 395.063 643.234 395.063 643.234 459.578 594.77 459.578Z" fill="#924822" fill-opacity="0.9"/><path d="M586.693 392.089 705.152 392.089 705.152 696.107 586.693 696.107Z" stroke="#333333" stroke-width="1.38951" stroke-linecap="round" stroke-linejoin="round" stroke-miterlimit="10" fill="none"/></g><g clip-path="url(#clip19)"><path d="M335.554 370.116 454.014 370.116 454.014 392.089 335.554 392.089Z" stroke="#333333" stroke-width="1.38951" stroke-linecap="round" stroke-linejoin="round" stroke-miterlimit="10" fill="#D9D9D9"/><text fill="#1A1A1A" font-family="Arial,Arial_MSFontService,sans-serif" font-weight="400" font-size="9" transform="matrix(1.29861 0 0 1.29861 376.603 385)">Day</text><text fill="#1A1A1A" font-family="Arial,Arial_MSFontService,sans-serif" font-weight="400" font-size="9" transform="matrix(1.29861 0 0 1.29861 399.978 385)">10</text></g><g clip-path="url(#clip20)"><path d="M461.13 370.116 579.589 370.116 579.589 392.089 461.13 392.089Z" stroke="#333333" stroke-width="1.38951" stroke-linecap="round" stroke-linejoin="round" stroke-miterlimit="10" fill="#D9D9D9"/><text fill="#1A1A1A" font-family="Arial,Arial_MSFontService,sans-serif" font-weight="400" font-size="9" transform="matrix(1.29861 0 0 1.29861 502.179 385)">Day</text><text fill="#1A1A1A" font-family="Arial,Arial_MSFontService,sans-serif" font-weight="400" font-size="9" transform="matrix(1.29861 0 0 1.29861 525.554 385)">25</text></g><g clip-path="url(#clip21)"><path d="M586.693 370.116 705.152 370.116 705.152 392.089 586.693 392.089Z" stroke="#333333" stroke-width="1.38951" stroke-linecap="round" stroke-linejoin="round" stroke-miterlimit="10" fill="#D9D9D9"/><text fill="#1A1A1A" font-family="Arial,Arial_MSFontService,sans-serif" font-weight="400" font-size="9" transform="matrix(1.29861 0 0 1.29861 627.742 385)">Day</text><text fill="#1A1A1A" font-family="Arial,Arial_MSFontService,sans-serif" font-weight="400" font-size="9" transform="matrix(1.29861 0 0 1.29861 651.117 385)">60</text></g><g clip-path="url(#clip22)"><path d="M352.475 699.652 352.475 696.094" stroke="#333333" stroke-width="1.38951" stroke-linejoin="round" stroke-miterlimit="10" fill="none"/><path d="M380.681 699.652 380.681 696.094" stroke="#333333" stroke-width="1.38951" stroke-linejoin="round" stroke-miterlimit="10" fill="none"/><path d="M408.887 699.652 408.887 696.094" stroke="#333333" stroke-width="1.38951" stroke-linejoin="round" stroke-miterlimit="10" fill="none"/><path d="M437.093 699.652 437.093 696.094" stroke="#333333" stroke-width="1.38951" stroke-linejoin="round" stroke-miterlimit="10" fill="none"/><text fill="#4D4D4D" font-family="Arial,Arial_MSFontService,sans-serif" font-weight="400" font-size="9" transform="matrix(1.29861 0 0 1.29861 344.034 711)">CK</text><text fill="#4D4D4D" font-family="Arial,Arial_MSFontService,sans-serif" font-weight="400" font-size="9" transform="matrix(1.29861 0 0 1.29861 372.24 711)">AD</text><text fill="#4D4D4D" font-family="Arial,Arial_MSFontService,sans-serif" font-weight="400" font-size="9" transform="matrix(1.29861 0 0 1.29861 395.901 711)">AOM</text><text fill="#4D4D4D" font-family="Arial,Arial_MSFontService,sans-serif" font-weight="400" font-size="9" transform="matrix(1.29861 0 0 1.29861 428.652 711)">DA</text><path d="M478.051 699.652 478.051 696.094" stroke="#333333" stroke-width="1.38951" stroke-linejoin="round" stroke-miterlimit="10" fill="none"/><path d="M506.257 699.652 506.257 696.094" stroke="#333333" stroke-width="1.38951" stroke-linejoin="round" stroke-miterlimit="10" fill="none"/><path d="M534.45 699.652 534.45 696.094" stroke="#333333" stroke-width="1.38951" stroke-linejoin="round" stroke-miterlimit="10" fill="none"/><path d="M562.655 699.652 562.655 696.094" stroke="#333333" stroke-width="1.38951" stroke-linejoin="round" stroke-miterlimit="10" fill="none"/><text fill="#4D4D4D" font-family="Arial,Arial_MSFontService,sans-serif" font-weight="400" font-size="9" transform="matrix(1.29861 0 0 1.29861 469.61 711)">CK</text><text fill="#4D4D4D" font-family="Arial,Arial_MSFontService,sans-serif" font-weight="400" font-size="9" transform="matrix(1.29861 0 0 1.29861 497.816 711)">AD</text><text fill="#4D4D4D" font-family="Arial,Arial_MSFontService,sans-serif" font-weight="400" font-size="9" transform="matrix(1.29861 0 0 1.29861 521.464 711)">AOM</text><text fill="#4D4D4D" font-family="Arial,Arial_MSFontService,sans-serif" font-weight="400" font-size="9" transform="matrix(1.29861 0 0 1.29861 554.214 711)">DA</text><path d="M619.002 699.652 619.002 696.094" stroke="#333333" stroke-width="1.38951" stroke-linejoin="round" stroke-miterlimit="10" fill="none"/><path d="M672.843 699.652 672.843 696.094" stroke="#333333" stroke-width="1.38951" stroke-linejoin="round" stroke-miterlimit="10" fill="none"/><text fill="#4D4D4D" font-family="Arial,Arial_MSFontService,sans-serif" font-weight="400" font-size="9" transform="matrix(1.29861 0 0 1.29861 610.561 711)">CK</text><text fill="#4D4D4D" font-family="Arial,Arial_MSFontService,sans-serif" font-weight="400" font-size="9" transform="matrix(1.29861 0 0 1.29861 664.402 711)">AD</text><text fill="#4D4D4D" font-family="Arial,Arial_MSFontService,sans-serif" font-weight="400" font-size="9" transform="matrix(1.29861 0 0 1.29861 312.27 697)">0</text><text fill="#4D4D4D" font-family="Arial,Arial_MSFontService,sans-serif" font-weight="400" font-size="9" transform="matrix(1.29861 0 0 1.29861 318.763 697)">%</text><text fill="#4D4D4D" font-family="Arial,Arial_MSFontService,sans-serif" font-weight="400" font-size="9" transform="matrix(1.29861 0 0 1.29861 305.777 623)">25</text><text fill="#4D4D4D" font-family="Arial,Arial_MSFontService,sans-serif" font-weight="400" font-size="9" transform="matrix(1.29861 0 0 1.29861 318.763 623)">%</text><text fill="#4D4D4D" font-family="Arial,Arial_MSFontService,sans-serif" font-weight="400" font-size="9" transform="matrix(1.29861 0 0 1.29861 305.777 548)">50</text><text fill="#4D4D4D" font-family="Arial,Arial_MSFontService,sans-serif" font-weight="400" font-size="9" transform="matrix(1.29861 0 0 1.29861 318.763 548)">%</text><text fill="#4D4D4D" font-family="Arial,Arial_MSFontService,sans-serif" font-weight="400" font-size="9" transform="matrix(1.29861 0 0 1.29861 305.777 474)">75</text><text fill="#4D4D4D" font-family="Arial,Arial_MSFontService,sans-serif" font-weight="400" font-size="9" transform="matrix(1.29861 0 0 1.29861 318.763 474)">%</text><text fill="#4D4D4D" font-family="Arial,Arial_MSFontService,sans-serif" font-weight="400" font-size="9" transform="matrix(1.29861 0 0 1.29861 299.284 399)">100</text><text fill="#4D4D4D" font-family="Arial,Arial_MSFontService,sans-serif" font-weight="400" font-size="9" transform="matrix(1.29861 0 0 1.29861 318.763 399)">%</text><path d="M331.996 693.12 335.554 693.12" stroke="#333333" stroke-width="1.38951" stroke-linejoin="round" stroke-miterlimit="10" fill="none"/><path d="M331.996 618.606 335.554 618.606" stroke="#333333" stroke-width="1.38951" stroke-linejoin="round" stroke-miterlimit="10" fill="none"/><path d="M331.996 544.091 335.554 544.091" stroke="#333333" stroke-width="1.38951" stroke-linejoin="round" stroke-miterlimit="10" fill="none"/><path d="M331.996 469.577 335.554 469.577" stroke="#333333" stroke-width="1.38951" stroke-linejoin="round" stroke-miterlimit="10" fill="none"/><path d="M331.996 395.063 335.554 395.063" stroke="#333333" stroke-width="1.38951" stroke-linejoin="round" stroke-miterlimit="10" fill="none"/><text font-family="Arial,Arial_MSFontService,sans-serif" font-weight="400" font-size="11" transform="matrix(7.9517e-17 -1.29861 1.29861 7.9517e-17 293.349 608)">Relative</text><text font-family="Arial,Arial_MSFontService,sans-serif" font-weight="400" font-size="11" transform="matrix(7.9517e-17 -1.29861 1.29861 7.9517e-17 293.349 558)">_</text><text font-family="Arial,Arial_MSFontService,sans-serif" font-weight="400" font-size="11" transform="matrix(7.9517e-17 -1.29861 1.29861 7.9517e-17 293.349 551)">abundance</text><path d="M719.385 403.374 829.884 403.374 829.884 684.796 719.385 684.796Z" fill="#FFFFFF"/><text font-family="Arial,Arial_MSFontService,sans-serif" font-weight="400" font-size="11" transform="matrix(1.29861 0 0 1.29861 726.501 422)">Genus</text><path d="M726.501 430.852 748.941 430.852 748.941 453.292 726.501 453.292Z" fill="#FFFFFF"/><path d="M727.423 431.774 748.019 431.774 748.019 452.37 727.423 452.37Z" fill="#924822" fill-opacity="0.9"/><path d="M726.501 453.292 748.941 453.292 748.941 475.732 726.501 475.732Z" fill="#FFFFFF"/><path d="M727.423 454.214 748.019 454.214 748.019 474.81 727.423 474.81Z" fill="#D595A7" fill-opacity="0.9"/><path d="M726.501 475.732 748.941 475.732 748.941 498.172 726.501 498.172Z" fill="#FFFFFF"/><path d="M727.423 476.654 748.019 476.654 748.019 497.25 727.423 497.25Z" fill="#6BD76B" fill-opacity="0.9"/><path d="M726.501 498.172 748.941 498.172 748.941 520.612 726.501 520.612Z" fill="#FFFFFF"/><path d="M727.423 499.094 748.019 499.094 748.019 519.69 727.423 519.69Z" fill="#802268" fill-opacity="0.9"/><path d="M726.501 520.612 748.941 520.612 748.941 543.052 726.501 543.052Z" fill="#FFFFFF"/><path d="M727.423 521.534 748.019 521.534 748.019 542.13 727.423 542.13Z" fill="#5DB1DD" fill-opacity="0.9"/><path d="M726.501 543.052 748.941 543.052 748.941 565.492 726.501 565.492Z" fill="#FFFFFF"/><path d="M727.423 543.974 748.019 543.974 748.019 564.57 727.423 564.57Z" fill="#BA6338" fill-opacity="0.9"/><path d="M726.501 565.492 748.941 565.492 748.941 587.932 726.501 587.932Z" fill="#FFFFFF"/><path d="M727.423 566.414 748.019 566.414 748.019 587.01 727.423 587.01Z" fill="#466983" fill-opacity="0.9"/><path d="M726.501 587.932 748.941 587.932 748.941 610.372 726.501 610.372Z" fill="#FFFFFF"/><path d="M727.423 588.854 748.019 588.854 748.019 609.45 727.423 609.45Z" fill="#F0E685" fill-opacity="0.9"/><path d="M726.501 610.372 748.941 610.372 748.941 632.812 726.501 632.812Z" fill="#FFFFFF"/><path d="M727.423 611.294 748.019 611.294 748.019 631.89 727.423 631.89Z" fill="#749B58" fill-opacity="0.9"/><path d="M726.501 632.812 748.941 632.812 748.941 655.252 726.501 655.252Z" fill="#FFFFFF"/><path d="M727.423 633.734 748.019 633.734 748.019 654.33 727.423 654.33Z" fill="#CE3D32" fill-opacity="0.9"/><path d="M726.501 655.252 748.941 655.252 748.941 677.692 726.501 677.692Z" fill="#FFFFFF"/><path d="M727.423 656.174 748.019 656.174 748.019 676.77 727.423 676.77Z" fill="#5050FF" fill-opacity="0.9"/><text font-family="Arial,Arial_MSFontService,sans-serif" font-weight="400" font-size="9" transform="matrix(1.29861 0 0 1.29861 756.058 446)">Other</text><text font-family="Arial,Arial_MSFontService,sans-serif" font-weight="400" font-size="9" transform="matrix(1.29861 0 0 1.29861 756.058 469)">Marinobacter</text><text font-family="Arial,Arial_MSFontService,sans-serif" font-weight="400" font-size="9" transform="matrix(1.29861 0 0 1.29861 756.058 491)">Muricauda</text><text font-family="Arial,Arial_MSFontService,sans-serif" font-weight="400" font-size="9" transform="matrix(1.29861 0 0 1.29861 756.058 513)">Arenibacter</text><text font-family="Arial,Arial_MSFontService,sans-serif" font-weight="400" font-size="9" transform="matrix(1.29861 0 0 1.29861 756.058 536)">Gimesia</text><text font-family="Arial,Arial_MSFontService,sans-serif" font-weight="400" font-size="9" transform="matrix(1.29861 0 0 1.29861 756.058 558)">Sulfitobacter</text><text font-family="Arial,Arial_MSFontService,sans-serif" font-weight="400" font-size="9" transform="matrix(1.29861 0 0 1.29861 756.058 581)">Vibrio</text><text font-family="Arial,Arial_MSFontService,sans-serif" font-weight="400" font-size="9" transform="matrix(1.29861 0 0 1.29861 756.058 603)">Leisingera</text><text font-family="Arial,Arial_MSFontService,sans-serif" font-weight="400" font-size="9" transform="matrix(1.29861 0 0 1.29861 756.058 626)">Tritonibacter</text><text font-family="Arial,Arial_MSFontService,sans-serif" font-weight="400" font-size="9" transform="matrix(1.29861 0 0 1.29861 756.058 648)">unclassified</text><text font-family="Arial,Arial_MSFontService,sans-serif" font-weight="400" font-size="9" transform="matrix(1.29861 0 0 1.29861 756.058 671)">Cellulophaga</text></g></g></g></g></g></svg>